# xmcd
#
# Track frame offsets:
#	150
#	19367
#	37910
#	66940
#	95375
#	114027
#	140387
#	178445
#	208607
#	230080
#
# Disc length: 3257 seconds
#
# Revision: 1
# Processed by: cddbd v1.5.1PL2 Copyright (c) Steve Scherf et al.
# Submitted via: audiograbber 1.83.01
#
DISCID=890cb70a
DTITLE=PJ junior and simply the blues - PJ junior and simply the blues
DYEAR=1999
DGENRE=Blues
TTITLE0=7-24 blues
TTITLE1=gino and june
TTITLE2=i will kill him
TTITLE3=menu
TTITLE4=je m'en fous
TTITLE5=howetown blues
TTITLE6=you can keep my picture
TTITLE7=simply th eblues
TTITLE8=virus
TTITLE9=i love my baby
EXTD=Pj Junior - vocals, drums and percussion\nLino Failla: Bass\nEric Nossent:
EXTD=Keyboards\nMichel Krajewski - Guitar
EXTT0=
EXTT1=
EXTT2=
EXTT3=
EXTT4=
EXTT5=
EXTT6=
EXTT7=
EXTT8=
EXTT9=
PLAYORDER=
